<svg xmlns="http://www.w3.org/2000/svg" xmlns:xlink="http://www.w3.org/1999/xlink" version="1.1" data-diagram-type="SEQUENCE" style="width:210px;height:280px;background:#FFFFFF;" width="210px" height="280px" viewBox="0 0 210 280" zoomAndPan="magnify" preserveAspectRatio="none" contentStyleType="text/css"><?plantuml 1.2026.7beta8?><defs/><g font-family="sans-serif" lengthAdjust="spacing"><g><title>Client</title><rect x="33.765" y="72.297" width="8" height="134.531" fill="#000" fill-opacity="0"/><line x1="37.265" y1="72.297" x2="37.265" y2="206.828" style="stroke:#181818;stroke-width:0.5;stroke-dasharray:5,5;"/></g><g><title>API</title><rect x="112.467" y="72.297" width="8" height="134.531" fill="#000" fill-opacity="0"/><line x1="115.967" y1="72.297" x2="115.967" y2="206.828" style="stroke:#181818;stroke-width:0.5;stroke-dasharray:5,5;"/></g><g><title></title><rect x="110.967" y="101.43" width="10" height="87.398" fill="#FFF" style="stroke:#181818;stroke-width:1;"/></g><g><title>Store</title><rect x="173.995" y="72.297" width="8" height="134.531" fill="#000" fill-opacity="0"/><line x1="177.495" y1="72.297" x2="177.495" y2="206.828" style="stroke:#181818;stroke-width:0.5;stroke-dasharray:5,5;"/></g><rect x="10" y="41" width="54.53" height="30.297" fill="#E2E2F0" style="stroke:#181818;stroke-width:0.5;" rx="2.5" ry="2.5"/><text x="17" y="60.995" fill="#000" font-size="14" textLength="40.53">Client</text><rect x="97.893" y="41" width="36.148" height="30.297" fill="#E2E2F0" style="stroke:#181818;stroke-width:0.5;" rx="2.5" ry="2.5"/><text x="104.893" y="60.995" fill="#000" font-size="14" textLength="22.148">API</text><text x="155.839" y="68.995" fill="#000" font-size="14" textLength="37.311">Store</text><path d="M159.495,20 C159.495,10 177.495,10 177.495,10 C177.495,10 195.495,10 195.495,20 L195.495,46 C195.495,56 177.495,56 177.495,56 C177.495,56 159.495,56 159.495,46 L159.495,20" style="stroke:#181818;stroke-width:0.5;" fill="#E2E2F0"/><path d="M159.495,20 C159.495,30 177.495,30 177.495,30 C177.495,30 195.495,30 195.495,20" style="stroke:#181818;stroke-width:0.5;" fill="none"/><rect x="10" y="206.828" width="54.53" height="30.297" fill="#E2E2F0" style="stroke:#181818;stroke-width:0.5;" rx="2.5" ry="2.5"/><text x="17" y="226.823" fill="#000" font-size="14" textLength="40.53">Client</text><rect x="97.893" y="206.828" width="36.148" height="30.297" fill="#E2E2F0" style="stroke:#181818;stroke-width:0.5;" rx="2.5" ry="2.5"/><text x="104.893" y="226.823" fill="#000" font-size="14" textLength="22.148">API</text><text x="155.839" y="219.823" fill="#000" font-size="14" textLength="37.311">Store</text><path d="M159.495,233.125 C159.495,223.125 177.495,223.125 177.495,223.125 C177.495,223.125 195.495,223.125 195.495,233.125 L195.495,259.125 C195.495,269.125 177.495,269.125 177.495,269.125 C177.495,269.125 159.495,269.125 159.495,259.125 L159.495,233.125" style="stroke:#181818;stroke-width:0.5;" fill="#E2E2F0"/><path d="M159.495,233.125 C159.495,243.125 177.495,243.125 177.495,243.125 C177.495,243.125 195.495,243.125 195.495,233.125" style="stroke:#181818;stroke-width:0.5;" fill="none"/><polygon points="98.967,97.43,108.967,101.43,98.967,105.43,102.967,101.43" fill="#181818" style="stroke:#181818;stroke-width:1;stroke-linejoin:miter;stroke-miterlimit:10;"/><line x1="37.265" y1="101.43" x2="104.967" y2="101.43" style="stroke:#181818;stroke-width:1;"/><text x="44.265" y="96.364" fill="#000" font-size="13" textLength="49.702">request</text><polygon points="165.495,126.563,175.495,130.563,165.495,134.563,169.495,130.563" fill="#181818" style="stroke:#181818;stroke-width:1;stroke-linejoin:miter;stroke-miterlimit:10;"/><line x1="120.967" y1="130.563" x2="171.495" y2="130.563" style="stroke:#181818;stroke-width:1;"/><text x="127.967" y="125.497" fill="#000" font-size="13" textLength="37.527">query</text><polygon points="131.967,155.695,121.967,159.695,131.967,163.695,127.967,159.695" fill="#181818" style="stroke:#181818;stroke-width:1;stroke-linejoin:miter;stroke-miterlimit:10;"/><line x1="125.967" y1="159.695" x2="176.495" y2="159.695" style="stroke:#181818;stroke-width:1;stroke-dasharray:2,2;"/><text x="137.967" y="154.629" fill="#000" font-size="13" textLength="23.931">row</text><polygon points="48.265,184.828,38.265,188.828,48.265,192.828,44.265,188.828" fill="#181818" style="stroke:#181818;stroke-width:1;stroke-linejoin:miter;stroke-miterlimit:10;"/><line x1="42.265" y1="188.828" x2="109.967" y2="188.828" style="stroke:#181818;stroke-width:1;stroke-dasharray:2,2;"/><text x="54.265" y="183.762" fill="#000" font-size="13" textLength="37.064">result</text><?plantuml-src JOmx2e0m44JxFSLUm0ka4CJAJl04gsuH48t9HF7svWDYiSNEl7bEFEnYdUpWVhEwWzmlwiQ1Le7C4fGd75wfKjoqkJJizOmQGBB0NW8jatGPA0F32V0FbOURRtVS5Kj1LMPNY1jerR_i1G00?></g></svg>