<svg xmlns="http://www.w3.org/2000/svg" xmlns:xlink="http://www.w3.org/1999/xlink" version="1.1" data-diagram-type="SEQUENCE" style="width:203px;height:203px;background:#FFFFFF;" width="203px" height="203px" viewBox="0 0 203 203" zoomAndPan="magnify" preserveAspectRatio="none" contentStyleType="text/css"><?plantuml 1.2026.7beta8?><defs/><g font-family="sans-serif" lengthAdjust="spacing"><g><title>Client</title><rect x="33.765" y="41.297" width="8" height="120.367" fill="#000" fill-opacity="0"/><line x1="37.265" y1="41.297" x2="37.265" y2="161.664" style="stroke:#181818;stroke-width:0.5;stroke-dasharray:5,5;"/></g><g><title>API</title><rect x="170.646" y="41.297" width="8" height="120.367" fill="#000" fill-opacity="0"/><line x1="174.146" y1="41.297" x2="174.146" y2="161.664" style="stroke:#181818;stroke-width:0.5;stroke-dasharray:5,5;"/></g><rect x="10" y="10" width="54.53" height="30.297" fill="#E2E2F0" style="stroke:#181818;stroke-width:0.5;" rx="2.5" ry="2.5"/><text x="17" y="29.995" fill="#000" font-size="14" textLength="40.53">Client</text><rect x="156.072" y="10" width="36.148" height="30.297" fill="#E2E2F0" style="stroke:#181818;stroke-width:0.5;" rx="2.5" ry="2.5"/><text x="163.072" y="29.995" fill="#000" font-size="14" textLength="22.148">API</text><rect x="10" y="161.664" width="54.53" height="30.297" fill="#E2E2F0" style="stroke:#181818;stroke-width:0.5;" rx="2.5" ry="2.5"/><text x="17" y="181.659" fill="#000" font-size="14" textLength="40.53">Client</text><rect x="156.072" y="161.664" width="36.148" height="30.297" fill="#E2E2F0" style="stroke:#181818;stroke-width:0.5;" rx="2.5" ry="2.5"/><text x="163.072" y="181.659" fill="#000" font-size="14" textLength="22.148">API</text><polygon points="162.146,66.43,172.146,70.43,162.146,74.43,166.146,70.43" fill="#181818" style="stroke:#181818;stroke-width:1;stroke-linejoin:miter;stroke-miterlimit:10;"/><line x1="37.265" y1="70.43" x2="168.146" y2="70.43" style="stroke:#181818;stroke-width:1;"/><text x="44.265" y="65.364" fill="#000" font-size="13" font-weight="700">1</text><text x="57.311" y="65.364" fill="#000" font-size="13" textLength="99.836">begin checkout</text><rect x="12" y="78.43" width="178.221" height="39.102" fill="none" style="stroke:#000;stroke-width:1.5;"/><path d="M12,78.43 L77,78.43 L77,85.43 L67,95.43 L12,95.43 L12,78.43" style="stroke:#000;stroke-width:2;" fill="#EEE"/><text x="25" y="92.497" fill="#000" font-size="13" textLength="20.884" font-weight="700">ref</text><text x="65.802" y="110.568" fill="#000" font-size="12" textLength="70.617">OAuth login</text><polygon points="48.265,139.664,38.265,143.664,48.265,147.664,44.265,143.664" fill="#181818" style="stroke:#181818;stroke-width:1;stroke-linejoin:miter;stroke-miterlimit:10;"/><line x1="42.265" y1="143.664" x2="173.146" y2="143.664" style="stroke:#181818;stroke-width:1;stroke-dasharray:2,2;"/><text x="54.265" y="138.598" fill="#000" font-size="13" font-weight="700">2</text><text x="67.311" y="138.598" fill="#000" font-size="13" textLength="37.254">ready</text><?plantuml-src LOkn3O0W401xflW1T04A4s9bfIi0la9489_7nEt5O6DvbpjTECLo6YIHDR6tFkl8C0QFaNzABPDe6lhX9Ga6Tn_1EhH7AYm8DqWNqdTtBPfLOGSXrLHK0NszMo21KA_t0m00?></g></svg>